<svg id="Layer_1" data-name="Layer 1" xmlns="http://www.w3.org/2000/svg" viewBox="0 0 211.52 49.48"><defs><style>.cls-1{fill:#243842;}.cls-2{fill:#f7901e;}</style></defs><title>aviva_logo [Converted]</title><path class="cls-1" d="M221.15,414.09A60.38,60.38,0,0,0,238,427l0.36,0.21,0.26-.8c0.1-.29.2-0.59,0.29-0.89l0.49-1.53-0.14.09a17,17,0,0,0,.32-2.26h0c0-.12,0-0.25,0-0.37,0-.27,0-0.55,0-0.82s0-.27,0-0.4c0-.35,0-0.7,0-1.05v-0.15a20.6,20.6,0,0,0-2.48-8.07l-0.07-.15-1.92-.48v0c-1.16-.26-2.3-0.48-3.43-0.63v0a34.66,34.66,0,0,0-8.7-.17h0c-0.65.07-1.29,0.16-1.92,0.27l-0.36.06c-0.64.12-1.29,0.25-1.92,0.42l-0.49.13,0.19,0.28,0.1,0.15A37,37,0,0,0,221.15,414.09Zm16.27,1.76a15.92,15.92,0,0,1,.22,3.68,12.18,12.18,0,0,1-.82,3.68,46.59,46.59,0,0,1-14.29-11c1.76-.5,6.37-1.41,13.33.2C236.06,412.76,236.75,414.12,237.42,415.84Zm-2.62-7.69,0.44-.15-0.41-.58a21.23,21.23,0,0,0-4.63-4.29l-1.65-1.22,1.22,1.73a19.08,19.08,0,0,1,1.94,2.72,38.48,38.48,0,0,1-13.5-1,11.75,11.75,0,0,1-.75-5.11,4.34,4.34,0,0,1,2.3-3.48,19,19,0,0,1,2.05.69l1.89,0.59-1.58-1.16-0.58-.35-2.21-1.19-0.14.07a6.79,6.79,0,0,0-3.69,3.66c-0.81,2.05-.58,4.57.71,7.54l0.17,0.34,0.13,0C223.71,409.06,230.44,409.48,234.8,408.15Zm-41.36,36.11,0.36,0c18.2,2.33,34.31-2.39,41.95-12.42l0.12-.18,0.22-.35-0.17-.24A59.46,59.46,0,0,0,214.26,412l-0.14-.06-0.43.18a13,13,0,0,0-5.8,5.61L207.1,419l1.26-.81a25.78,25.78,0,0,1,6-3c1.21,0.73,10.94,6.77,17.27,15.41-1.76,1.69-14,12.47-33.8,10.1-0.27-.85-1.18-3.92-1-5.4l0.33-1.65-1,1.48L195.46,437a29.14,29.14,0,0,0-1.94,6.85Zm47.87-31.71c-1.77,3.68-.64,9.76,3.38,17.4l0.09,0.15,0.52,0.22c10.72,4,19.1,3.59,22-1.16l0.19-.29-3.57-3-1-.74-3-2.09,2.59,2.68a26.56,26.56,0,0,1,2.11,2.43c-3.61,4.33-16.09.46-17.61,0-2.94-5.72-3.22-10.07-3.13-12.09,0-.39,0-0.68.07-0.9a43.1,43.1,0,0,1,5.06,1.9l3,1.14-2.64-1.78a35.43,35.43,0,0,0-7.26-3.93l-0.58-.21Z" transform="translate(-193.44 -395.41)"/><path class="cls-2" d="M270.18,423.95,265,419.33H255.8l2.43-4.14h7.61Z" transform="translate(-193.44 -395.41)"/><path class="cls-2" d="M291.78,407.38h4.16l-3.46,16.57h-4.16Z" transform="translate(-193.44 -395.41)"/><path class="cls-2" d="M326.29,407.38h4.16L327,423.95h-4.16l0.37-1.75a10.74,10.74,0,0,1-2.79,1.67,7.62,7.62,0,0,1-2.76.51,5.88,5.88,0,0,1-5-2.49,7.48,7.48,0,0,1-1-6.2,11.19,11.19,0,0,1,3.58-6.29,8.9,8.9,0,0,1,6-2.46,6.23,6.23,0,0,1,2.68.56,5.69,5.69,0,0,1,2.06,1.68Zm-5.07,3.38a5.16,5.16,0,0,0-3.49,1.37,6.22,6.22,0,0,0-2,3.51,4.31,4.31,0,0,0,.56,3.54,3.37,3.37,0,0,0,2.91,1.39,5.25,5.25,0,0,0,3.53-1.37,6.29,6.29,0,0,0,2-3.58,4.19,4.19,0,0,0-.56-3.51A3.49,3.49,0,0,0,321.22,410.76Z" transform="translate(-193.44 -395.41)"/><path class="cls-2" d="M362.39,405.47l-3.58,2.84a7.36,7.36,0,0,0-6.19-3.21,9,9,0,0,0-5.87,2.19,9.31,9.31,0,0,0-3.33,5.4,7.3,7.3,0,0,0,.15,4,5.17,5.17,0,0,0,2.19,2.72,6.92,6.92,0,0,0,3.76,1,9.22,9.22,0,0,0,3.54-.69,16.3,16.3,0,0,0,3.91-2.52l2.26,3a21.14,21.14,0,0,1-5.4,3.37,14.27,14.27,0,0,1-5.24.94q-5.23,0-7.86-3.31t-1.56-8.49a14.12,14.12,0,0,1,2.76-6,15.3,15.3,0,0,1,5.21-4.19,14.15,14.15,0,0,1,6.42-1.59,11.15,11.15,0,0,1,5.09,1.17A9.46,9.46,0,0,1,362.39,405.47Z" transform="translate(-193.44 -395.41)"/><path class="cls-2" d="M395.29,420.46a3.27,3.27,0,0,0,2-.64,2.46,2.46,0,0,0,1.05-1.48,2.21,2.21,0,0,0-.25-1.52,12,12,0,0,0-2-2.33,18.45,18.45,0,0,1-3.76-4.61,5.17,5.17,0,0,1-.39-3.24,6.8,6.8,0,0,1,2.61-4,7.46,7.46,0,0,1,4.73-1.67l-0.91,4.08a2.44,2.44,0,0,0-1.46.45,1.7,1.7,0,0,0-.74,1,1.5,1.5,0,0,0,.16,1.07,21.31,21.31,0,0,0,2.52,2.88q2,2,2.42,2.57a6.8,6.8,0,0,1,1.31,2.51,5.87,5.87,0,0,1,0,2.61,7.64,7.64,0,0,1-2.85,4.56,8.38,8.38,0,0,1-5.34,1.8" transform="translate(-193.44 -395.41)"/><path class="cls-2" d="M399.26,401a23.48,23.48,0,0,1,5.7.44l-0.81,3.91s-3.22-.27-5.8-0.27" transform="translate(-193.44 -395.41)"/><path class="cls-2" d="M394.36,424.51a44.28,44.28,0,0,1-5.6-.44l0.81-3.91a57.44,57.44,0,0,0,5.89.3" transform="translate(-193.44 -395.41)"/><path class="cls-2" d="M285,407.38l-0.86,4.11a15.9,15.9,0,0,1-2.4,5.73c-1,1.26-2.52,2.39-3.82,2.39l2.52-12.24h-4.24l-3.39,16.51H277a8.25,8.25,0,0,0,4.76-1.63,14.76,14.76,0,0,0,4.11-4.54,19.58,19.58,0,0,0,2.46-6.24l0.91-4.11H285Z" transform="translate(-193.44 -395.41)"/><path class="cls-2" d="M308,407.38l-0.86,4.11a15.93,15.93,0,0,1-2.4,5.73c-1,1.26-2.52,2.39-3.82,2.39l2.52-12.24h-4.24l-3.39,16.51H300a8.25,8.25,0,0,0,4.76-1.63,14.76,14.76,0,0,0,4.11-4.54,19.58,19.58,0,0,0,2.46-6.24l0.91-4.11H308Z" transform="translate(-193.44 -395.41)"/><path class="cls-2" d="M256.76,423.95l1.16-5.58a21.55,21.55,0,0,1,3.26-7.77c1.3-1.72,4.86-4.62,8.45-4.62l-3.7,18h4.24l4.6-22.4h-5.68a11.19,11.19,0,0,0-6.46,2.22,20,20,0,0,0-5.58,6.15,26.57,26.57,0,0,0-3.34,8.46l-1.23,5.57h4.28Z" transform="translate(-193.44 -395.41)"/><path class="cls-2" d="M378.87,408.49l-3.22,15.46H371.5l2.73-13.09,0.83-4m-6.74,1.6-3.22,15.46H361l3.22-15.46,4.48-1.64,0.75-3.59" transform="translate(-193.44 -395.41)"/><path class="cls-2" d="M374.73,408.49a2.53,2.53,0,0,0-2.54-3.21,4.15,4.15,0,0,0-3.87,3.21h-4.14a9.53,9.53,0,0,1,8.88-7.35c4.06,0,6.66,3.29,5.81,7.35h-4.14Z" transform="translate(-193.44 -395.41)"/><path class="cls-2" d="M389.41,408.49l-3.22,15.46H382l2.73-13.09c0.41-2,.68-3.3.83-4m-6.74,1.6-3.22,15.46H371.5l4-19.16h4.13l0.32-1.53" transform="translate(-193.44 -395.41)"/><path class="cls-2" d="M385.27,408.49a2.53,2.53,0,0,0-2.54-3.21,4.16,4.16,0,0,0-3.87,3.21h-4.14a9.53,9.53,0,0,1,8.88-7.35c4.06,0,6.66,3.29,5.81,7.35h-4.14Z" transform="translate(-193.44 -395.41)"/></svg>