<svg preserveAspectRatio="xMinYMin meet" id="Layer_1" data-name="Layer 1" xmlns="http://www.w3.org/2000/svg" viewBox="0 0 115.27 24.2"><defs><style>.cls-1{fill:#58595b;}</style></defs><title>infoserv_logo_new</title><path class="cls-1" d="M6.27,3.06h4.3L6.19,25.86H1.89Z" transform="translate(-1.89 -2.07)"/><path class="cls-1" d="M26.31,16.09l-1.87,9.77H20.2l1.41-7.36,0.78-4m-6.85,1.64-1.88,9.77H9.45L12.69,9h4.22l-0.33,1.75" transform="translate(-1.89 -2.07)"/><path class="cls-1" d="M34.73,9h2.69L36.73,12.6H34L31.48,25.86H27.27L29.82,12.6l0.75-3.93" transform="translate(-1.89 -2.07)"/><path class="cls-1" d="M47.42,8.6a7.75,7.75,0,0,1,4.25,1.19A6.5,6.5,0,0,1,54.33,13a7.87,7.87,0,0,1,.33,4.4,10.52,10.52,0,0,1-2,4.45,11.31,11.31,0,0,1-3.85,3.24A10.19,10.19,0,0,1,44,26.27a6.91,6.91,0,0,1-5.69-2.57A7.3,7.3,0,0,1,37,17.45a10.64,10.64,0,0,1,4.16-6.56A10.16,10.16,0,0,1,47.42,8.6Zm-0.7,4a5.25,5.25,0,0,0-3.54,1.37,6,6,0,0,0-2,3.49A4.29,4.29,0,0,0,41.82,21a3.55,3.55,0,0,0,3,1.35A5.29,5.29,0,0,0,48.4,21a6,6,0,0,0,2-3.53,4.23,4.23,0,0,0-.62-3.51A3.6,3.6,0,0,0,46.73,12.57Z" transform="translate(-1.89 -2.07)"/><path class="cls-1" d="M54.83,22.22a54.36,54.36,0,0,0,5.5.27,2.45,2.45,0,0,0,1.43-.4,1.46,1.46,0,0,0,.69-0.93q0.19-1-1.48-1.9l-1.29-.71Q56,16.5,56.55,13.42a5.6,5.6,0,0,1,2.2-3.4A6.69,6.69,0,0,1,63,8.6,22,22,0,0,1,68.29,9l-0.7,3.64s-2.93-.22-5.33-0.22a2.11,2.11,0,0,0-1.18.3,1.15,1.15,0,0,0-.55.75,0.78,0.78,0,0,0,.14.62,3.66,3.66,0,0,0,1.12.78l1.4,0.77a6.93,6.93,0,0,1,2.9,2.45A4.3,4.3,0,0,1,66.44,21a6.05,6.05,0,0,1-2.37,3.73,7.48,7.48,0,0,1-4.71,1.5,41.62,41.62,0,0,1-5.23-.41Z" transform="translate(-1.89 -2.07)"/><path class="cls-1" d="M86.4,18.63H72.77a3.67,3.67,0,0,0,1,2.86,4.18,4.18,0,0,0,3.06,1.06,6.79,6.79,0,0,0,4.4-1.65l3.25,1.67a11.09,11.09,0,0,1-3.73,2.8,11.16,11.16,0,0,1-4.59.91,7.24,7.24,0,0,1-6-2.49,7.29,7.29,0,0,1-1.29-6.25,10.87,10.87,0,0,1,3.72-6.39A10.11,10.11,0,0,1,79.35,8.6a7.2,7.2,0,0,1,6,2.54q2,2.53,1.21,6.7Zm-3.57-3.31a3.26,3.26,0,0,0-1.23-2.25,4.2,4.2,0,0,0-2.71-.87,6.07,6.07,0,0,0-3.31,1,7.18,7.18,0,0,0-2,2.14h9.24Z" transform="translate(-1.89 -2.07)"/><path class="cls-1" d="M67.59,12.65L68.29,9" transform="translate(-1.89 -2.07)"/><path class="cls-1" d="M112.83,9L112,13.21a16,16,0,0,1-2.36,5.85c-1,1.29-2.53,2.44-3.85,2.44L108.18,9h-4.33l-3.18,16.84h4.27a8.29,8.29,0,0,0,4.83-1.67,14.72,14.72,0,0,0,4.12-4.62,19.72,19.72,0,0,0,2.41-6.36L117.16,9h-4.33Z" transform="translate(-1.89 -2.07)"/><path class="cls-1" d="M98.81,12.57a5.22,5.22,0,0,0-3.54,1.37,6,6,0,0,0-2,3.49l-4.23,0a10.65,10.65,0,0,1,4.16-6.56A10.21,10.21,0,0,1,99.51,8.6c2.17,0,2.2.41,2.2,0.41L101,12.65S100.14,12.57,98.81,12.57Z" transform="translate(-1.89 -2.07)"/><polyline class="cls-1" points="91.53 14.57 91.08 16.98 89.78 23.79 85.56 23.79 88.8 6.95 92.44 6.95 91.89 9.8"/><path class="cls-1" d="M39.37,5.79a5.37,5.37,0,0,0-3.61.9,6.27,6.27,0,0,0-1.55,3.64L30.58,8.66a7.93,7.93,0,0,1,3.1-4.89,7.62,7.62,0,0,1,4.68-1.7C40,2.07,40,2.38,40,2.38Z" transform="translate(-1.89 -2.07)"/><path class="cls-1" d="M22.09,16.09a2.62,2.62,0,0,0-2.64-3.27,4.15,4.15,0,0,0-3.9,3.27H11.33A9.52,9.52,0,0,1,20.26,8.6a6,6,0,0,1,6.05,7.49H22.09Z" transform="translate(-1.89 -2.07)"/></svg>
